<svg width="577" height="602" viewBox="0 0 577 602" fill="none" xmlns="http://www.w3.org/2000/svg">
<g opacity="0.1" clip-path="url(#clip0_2_5321)">
<path d="M207.743 256.551C211.569 231.691 215.012 207.979 218.837 183.884C219.602 178.147 226.871 174.323 232.227 175.853C243.703 179.677 255.562 183.119 267.039 186.944C269.334 187.709 272.012 190.386 272.777 192.681C280.428 214.098 287.314 235.898 294.965 257.316C296.495 261.523 295.347 263.053 291.522 264.965C275.455 272.997 259.388 281.411 243.703 289.825C240.26 291.737 237.965 291.355 235.67 288.295C227.253 278.734 218.455 269.172 210.039 259.611C208.891 259.228 208.126 257.316 207.743 256.551Z" fill="#858585"/>
<path d="M68.617 352.048C71.6207 352.798 73.4981 353.548 75.3755 354.298C84.3868 357.673 93.3981 361.423 102.409 364.798C106.164 366.298 108.041 368.172 108.417 372.297C109.168 379.797 112.923 387.672 111.421 394.046C109.543 400.421 102.785 405.296 97.9037 410.92C91.8962 417.67 86.2641 424.795 79.8811 431.169C78.3792 433.044 75.3755 434.169 73.1226 434.169C53.2227 433.044 33.3227 431.919 13.4228 430.795C8.91712 430.42 8.16618 428.545 10.419 425.17C25.0624 403.046 39.3303 380.547 54.3491 358.798C56.9774 354.673 64.1113 353.923 68.617 352.048Z" fill="#858585"/>
<path d="M206.04 184.806C202.661 207.305 199.657 229.054 196.653 250.427C196.278 253.802 194.776 255.302 191.021 256.052C175.627 258.677 159.857 261.302 144.463 263.927C139.581 264.677 134.7 261.677 133.949 256.427C131.321 237.678 129.068 218.554 127.191 199.43C127.191 197.93 128.693 194.93 130.195 194.18C138.455 189.68 147.091 185.556 155.351 181.056C156.478 180.306 157.98 179.556 159.106 179.931C174.876 181.431 190.27 182.931 206.04 184.806Z" fill="#858585"/>
<path d="M213.55 407.918C191.397 407.918 169.62 408.293 148.218 407.543C144.839 407.543 141.835 403.793 138.831 402.293C126.065 397.044 121.184 386.919 119.682 373.795C118.931 366.67 120.433 362.545 124.939 357.296C131.697 349.421 139.207 346.046 149.72 346.421C164.363 347.171 179.382 345.671 194.026 345.296C195.903 345.296 198.907 346.421 199.282 347.921C204.163 367.795 209.044 387.669 213.55 407.918Z" fill="#858585"/>
<path d="M236.825 307.798C250.717 327.672 264.234 346.796 277 365.92C279.253 369.295 280.379 373.42 280.755 377.545C281.881 385.419 282.257 393.294 283.383 401.919C265.736 405.668 248.464 409.418 231.193 412.793C229.691 413.168 225.936 410.543 225.561 408.668C220.304 386.919 215.047 365.17 210.166 343.421C209.791 341.921 210.542 340.046 211.293 338.921C219.553 328.422 227.813 318.297 236.825 307.798Z" fill="#858585"/>
<path d="M228.94 299.175C219.928 310.05 210.917 320.924 202.281 331.799C201.53 332.924 199.653 333.674 198.151 333.674C178.626 333.674 159.102 333.674 139.202 333.674C139.202 333.674 138.827 332.549 139.202 331.049C140.704 313.799 142.206 296.55 143.708 279.301C143.708 277.801 145.961 275.176 147.462 274.801C163.232 271.801 179.377 269.177 195.147 266.552C197.025 266.177 199.653 266.927 200.779 268.052C210.166 278.551 219.177 288.676 228.94 299.175Z" fill="#858585"/>
<path d="M10.0438 442.044C31.0702 443.544 51.7211 444.669 71.9965 446.169C73.123 446.169 75.0003 448.419 75.3758 449.919C78.0041 457.793 80.2569 466.043 82.1343 474.293C82.5097 475.417 82.5097 477.667 81.7588 478.417C67.8664 491.917 53.9739 505.041 40.0815 518.165C40.457 518.915 40.457 519.29 40.8325 520.04C38.5796 518.165 36.7023 516.29 34.4495 514.416C23.9363 504.666 13.0476 495.292 2.53443 485.542C0.281603 483.292 -0.469339 481.792 0.281603 478.417C3.66084 466.418 6.66461 454.418 10.0438 442.044Z" fill="#858585"/>
<path d="M151.97 419.919C160.606 419.919 168.491 419.919 176.376 419.919C189.893 419.919 203.034 420.294 216.551 420.294C220.681 420.294 222.183 421.794 221.432 425.918C218.053 442.793 215.425 460.042 212.046 476.916C211.67 479.541 209.793 482.166 207.915 484.416C205.287 487.416 202.283 489.666 199.28 492.29C191.019 499.79 191.019 499.79 181.257 494.54C176.376 491.915 171.495 488.916 166.238 486.291C162.108 484.416 160.231 481.791 159.48 476.916C157.227 458.167 154.599 439.418 151.97 419.919Z" fill="#858585"/>
<path d="M185.763 553.414C161.733 553.414 139.58 553.414 116.301 553.414C116.676 544.414 117.052 536.539 117.803 528.29C118.554 519.29 119.305 510.666 119.68 501.666C119.68 498.666 120.807 497.166 123.81 496.791C132.446 495.666 141.082 494.166 149.718 493.042C151.971 492.667 154.974 493.042 156.852 494.166C165.112 498.291 173.372 503.166 181.633 507.666C183.135 508.416 185.012 510.666 185.388 512.166C185.763 526.415 185.763 539.914 185.763 553.414Z" fill="#858585"/>
<path d="M119.305 403.418C125.688 407.543 131.695 411.293 137.703 415.418C138.829 416.168 139.955 418.043 140.331 419.543C143.335 439.792 145.963 460.416 148.591 481.79C137.703 483.29 127.189 485.915 116.301 485.915C111.42 485.915 106.539 480.665 101.282 478.415C95.2744 476.165 93.397 471.29 92.2706 465.665C91.5197 462.291 90.7687 458.541 89.2669 455.541C84.7612 446.166 86.6386 438.667 94.5235 431.167C103.159 422.918 111.044 412.793 119.305 403.418Z" fill="#858585"/>
<path d="M108.417 502.04C107.291 519.289 106.164 535.788 104.663 551.913C104.663 553.788 103.161 556.038 101.659 556.788C95.6512 560.537 89.2682 564.287 82.8852 567.662C81.3834 568.412 78.7551 568.037 77.2532 566.912C69.3683 560.912 60.7325 554.913 54.3495 547.788C50.5947 543.288 50.2193 536.163 48.3419 529.789C48.3419 529.414 49.4683 528.289 49.8438 527.539C62.6098 514.414 75.3758 501.665 87.7664 488.541C90.3946 485.916 92.272 485.541 95.2758 487.791C97.5286 489.291 99.7814 490.791 102.41 491.916C107.291 494.165 109.919 497.165 108.417 502.04Z" fill="#858585"/>
<path d="M405.52 493.293C390.983 491.763 376.829 490.616 363.057 489.086C354.258 488.321 345.077 487.174 336.278 486.026C334.748 485.644 332.453 484.114 332.453 482.967C328.627 464.226 325.184 445.104 321.359 425.981C336.278 418.331 351.198 411.065 366.117 403.798C367.647 403.033 369.56 403.416 371.09 403.798C382.949 408.005 394.808 412.595 406.667 416.802C410.11 417.949 410.875 419.479 410.493 422.921C408.963 445.868 407.433 469.198 405.52 493.293Z" fill="#858585"/>
<path d="M411.641 516.24C410.494 531.921 409.346 547.984 407.816 563.665C407.816 565.578 406.668 567.49 405.138 568.637C395.192 577.051 385.245 585.083 374.916 593.497C373.386 594.644 370.708 595.027 369.178 594.262C361.91 591.585 353.111 590.437 348.521 585.465C343.93 580.493 343.93 571.697 342.4 564.813C337.809 545.307 333.219 525.802 329.011 506.297C327.48 500.177 329.393 497.882 335.514 498.265C359.614 500.56 383.333 502.854 407.433 505.532C409.346 505.914 411.259 508.591 412.024 510.504C412.406 512.033 412.024 514.328 411.641 516.24Z" fill="#858585"/>
<path d="M423.884 510.887C448.75 508.21 473.616 505.532 498.481 502.855C500.394 518.536 501.924 533.069 503.454 547.22C503.454 548.75 502.689 551.045 501.542 552.575C493.126 563.283 484.709 573.992 476.293 584.701C473.998 587.378 472.468 588.526 468.642 586.996C453.723 580.112 438.421 573.992 423.502 567.108C421.971 566.343 420.059 563.666 420.059 562.136C421.206 545.308 422.354 528.48 423.884 510.887Z" fill="#858585"/>
<path d="M540.559 12.1608C540.559 15.9854 539.412 17.8977 535.969 19.4275C531.378 20.9573 527.17 22.8696 522.579 24.7819C502.304 32.8135 502.304 32.8135 482.029 24.3994C480.499 23.6345 478.586 21.7223 477.821 19.81C473.23 3.36427 469.022 -13.0814 464.814 -29.5271C464.432 -31.0569 465.579 -34.1166 467.11 -34.8815C479.734 -41.7658 491.975 -48.2675 504.982 -54.7693C506.512 -55.5342 508.808 -55.5342 510.338 -54.7693C519.902 -50.9448 529.465 -46.7377 539.029 -42.1482C540.559 -41.3833 542.089 -38.7061 542.089 -36.7938C541.707 -19.2007 540.942 -2.75505 540.559 12.1608Z" fill="#858585"/>
<path d="M544.767 314.686C543.237 316.981 542.09 319.658 539.794 321.953C534.439 328.072 529.083 333.809 522.962 339.163C520.667 341.075 516.841 342.605 514.164 342.605C496.949 340.693 479.734 338.398 462.137 336.103C455.251 335.339 452.573 330.749 455.251 324.63C462.137 306.272 469.405 287.914 476.291 269.556C478.204 264.584 480.882 261.907 485.855 259.994C499.244 255.405 499.244 255.405 508.043 266.114C519.137 279.5 530.613 292.886 542.09 306.654C544.002 307.802 544.002 310.861 544.767 314.686Z" fill="#858585"/>
<path d="M479.355 118.867C470.174 133.783 461.375 148.317 452.576 162.85C451.429 164.762 448.751 165.91 446.838 166.292C434.214 168.969 421.59 171.264 408.966 173.559C400.932 175.089 392.899 168.204 392.516 160.173C392.133 142.962 391.368 125.752 390.986 108.541C390.986 104.716 392.133 103.187 395.194 101.274C408.201 93.2427 420.442 92.8603 434.214 100.127C446.838 106.629 460.61 111.218 473.617 116.573C475.529 116.955 477.06 118.103 479.355 118.867Z" fill="#858585"/>
<path d="M493.893 111.218C498.866 88.6527 503.456 66.8526 508.429 45.435C508.812 43.9051 511.107 41.9928 512.637 41.2279C522.201 37.0209 531.765 33.1963 541.711 29.7542C543.241 28.9893 546.302 29.7542 547.832 30.9016C554.718 36.256 561.604 41.9928 568.107 48.1122C569.637 49.642 571.168 52.3192 571.168 54.614C571.168 64.1754 571.168 73.3544 570.403 82.9159C570.403 85.2106 568.872 88.2703 566.96 89.8001C554.335 100.509 541.329 110.453 528.705 120.779C527.557 121.927 524.879 122.691 523.731 122.309C513.785 118.867 504.221 115.042 493.893 111.218Z" fill="#858585"/>
<path d="M342.785 25.1649C356.557 13.3087 369.946 1.45252 384.101 -10.7861C394.429 1.07006 404.376 12.5438 414.322 24.0175C418.53 28.9895 423.121 33.9614 426.946 39.3158C428.094 40.8457 428.476 43.9053 427.711 45.4352C422.738 56.5264 417.765 67.2353 412.409 77.9441C411.644 79.8564 409.731 81.7687 408.201 82.5336C400.933 86.3581 393.664 89.4178 385.631 93.2424C371.094 70.2949 356.939 47.7299 342.785 25.1649Z" fill="#858585"/>
<path d="M416.231 407.623C415.849 407.623 414.701 407.24 413.936 406.858C402.077 402.651 390.218 398.061 378.359 393.854C374.916 392.707 374.151 391.177 374.533 387.735C376.064 374.732 377.211 361.345 378.359 348.342C378.359 347.577 378.359 346.43 378.741 346.047C385.245 338.398 391.748 330.749 398.251 323.482C399.017 322.717 401.312 323.1 402.459 323.482C415.084 326.924 428.09 330.749 440.714 334.191C447.218 336.103 449.513 341.075 447.6 347.195C441.862 364.405 436.124 381.233 430.003 398.444C428.09 403.416 421.97 407.623 416.231 407.623Z" fill="#858585"/>
<path d="M379.506 -22.6419C364.587 -9.25589 349.667 3.74767 335.13 16.7512C333.983 17.5162 332.453 17.8986 330.922 17.8986C324.419 17.5162 317.533 17.1337 311.03 16.3688C309.5 15.9863 307.204 14.4565 306.822 12.9267C302.996 -0.0769043 299.553 -13.4629 296.493 -26.4665C296.11 -27.9963 297.258 -30.6735 298.406 -31.8209C316.768 -45.5894 335.13 -58.9754 354.258 -72.7439C362.292 -56.2982 370.708 -39.8525 379.506 -22.6419Z" fill="#858585"/>
<path d="M371.472 178.913C360.761 199.948 350.05 219.836 340.868 240.106C335.513 251.962 328.627 258.082 315.237 258.847C309.117 259.229 307.204 257.699 305.291 252.345C298.788 232.074 291.902 212.187 285.016 192.299C283.486 188.474 284.634 186.944 288.076 185.032C296.11 180.825 304.526 178.913 313.707 178.913C332.452 179.295 351.197 178.913 371.472 178.913Z" fill="#858585"/>
<path d="M411.258 185.033C424.647 182.355 437.654 179.678 450.66 177.383C452.191 177.001 454.103 178.148 455.251 179.296C470.553 191.917 485.855 204.538 501.157 217.159C502.687 218.306 502.687 220.984 503.07 223.278C503.07 224.043 502.305 224.808 502.305 225.573C500.774 239.724 492.741 247.373 478.969 249.668C476.291 250.05 472.848 250.433 470.17 249.668C457.546 246.226 444.922 242.401 432.298 238.194C430.385 237.429 427.707 235.899 426.942 234.37C421.587 218.306 416.614 201.861 411.258 185.033Z" fill="#858585"/>
<path d="M371.473 94.7717C358.849 97.4489 345.46 98.9787 333.218 103.186C318.682 108.158 308.735 103.951 298.406 94.0068C291.521 87.1225 288.843 81.3856 290.373 72.2067C291.903 61.4978 292.668 50.789 293.433 39.6977C293.816 33.9609 300.702 27.4591 306.823 27.8415C314.091 28.224 321.742 28.6065 329.01 29.3714C330.541 29.3714 332.453 30.5187 333.218 31.6661C346.225 51.9364 358.849 72.2067 371.856 92.8594C371.856 93.2418 371.473 93.6243 371.473 94.7717Z" fill="#858585"/>
<path d="M293.435 377.025C294.965 373.966 296.113 370.906 298.026 368.229C306.442 357.903 314.858 347.959 323.274 337.632C325.569 334.955 327.099 334.573 330.542 335.72C340.871 339.545 351.583 343.369 362.294 346.811C365.354 347.959 366.502 349.106 366.119 352.548C364.972 364.787 363.824 377.408 362.294 389.647C362.294 391.176 360.381 393.089 358.851 393.854C345.079 400.738 331.307 407.622 317.536 414.506C316.005 415.271 314.093 414.506 312.18 414.506L311.797 414.124C297.261 406.092 297.261 406.092 296.113 389.647C295.73 385.822 295.348 381.615 294.965 377.79C294.2 377.408 293.818 377.408 293.435 377.025Z" fill="#858585"/>
<path d="M229.289 477.624C229.48 474.078 229.272 470.74 230.039 467.327C234.081 453.6 238.3 440.213 242.343 426.486C243.509 422.866 244.933 421.698 249.058 420.851C261.612 418.652 274.566 416.245 287.344 413.499C291.07 412.86 292.797 413.257 293.982 416.52C298.414 428.007 303.023 439.834 307.057 451.529C307.761 452.887 306.642 455.621 305.395 457.129C294.171 470.701 282.947 484.273 271.724 497.845C270.477 499.353 268.126 499.71 266.127 500.746L265.551 500.613C246.664 501.357 246.664 501.357 237.896 487.378C235.736 484.19 233.4 480.662 231.241 477.474C230.265 477.549 229.865 477.756 229.289 477.624Z" fill="#858585"/>
<path d="M487.004 492.146C473.614 493.676 460.99 495.206 448.366 496.353C440.332 497.118 432.299 498.265 424.648 499.03C417.762 499.795 417.379 499.03 417.762 492.146C419.292 470.728 420.822 448.928 422.353 427.511C423.5 415.272 427.708 413.36 439.95 416.802C454.104 421.009 462.138 429.04 466.728 443.191C472.084 459.637 479.735 475.318 487.004 492.146Z" fill="#858585"/>
<path d="M302.366 169.601C304.962 157.106 308.3 145.714 309.783 133.954C311.267 124.767 315.347 120.724 324.619 119.622C340.567 117.049 356.144 113.374 373.576 109.699C373.576 118.887 373.576 127.339 373.576 135.424C373.576 145.346 373.947 155.269 374.318 164.824C374.318 167.396 374.689 169.601 370.98 169.601C348.726 169.601 326.102 169.601 302.366 169.601Z" fill="#858585"/>
<path d="M511.105 210.274C494.656 196.505 478.589 183.119 462.139 169.733C464.052 166.674 465.582 163.996 467.112 160.937C473.998 149.845 480.884 138.754 487.387 127.663C489.683 123.456 492.361 122.691 496.186 124.986C496.186 124.986 496.569 124.986 496.569 125.368C504.985 128.81 515.314 129.958 521.052 136.077C526.79 141.814 527.555 152.523 530.616 160.937C533.293 168.586 535.971 176.235 538.267 184.267C538.649 186.179 538.266 189.239 537.119 190.386C529.085 196.888 520.287 203.39 511.105 210.274Z" fill="#858585"/>
<path d="M283.104 95.5374C289.99 101.657 296.876 107.394 303.379 113.513C304.527 114.66 304.91 116.955 304.527 118.867C301.084 134.548 298.024 150.229 294.198 165.91C293.816 167.822 291.903 169.734 289.99 171.264C280.809 177.383 271.245 178.913 260.916 173.941C253.648 170.499 245.232 168.587 237.581 166.292C233.755 165.145 232.99 163.232 232.608 159.79C229.93 142.58 237.198 131.106 250.97 121.927C262.447 113.895 272.393 104.334 283.104 95.5374Z" fill="#858585"/>
<path d="M344.312 258.464C358.466 230.927 371.855 204.538 385.627 177.383C393.278 180.825 399.781 183.502 402.077 192.681C405.902 207.597 410.875 221.748 415.466 236.282C416.231 239.341 416.614 241.254 414.318 243.931C405.52 253.492 397.486 263.819 388.688 273.38C387.54 274.91 384.862 276.44 383.332 275.675C370.325 270.32 357.701 264.584 344.312 258.464Z" fill="#858585"/>
<path d="M516.46 354.461C516.842 365.552 517.607 375.496 517.99 385.822C517.99 387.734 516.46 390.794 514.547 391.559C498.48 398.826 482.413 405.71 465.963 412.594C464.433 413.359 462.138 413.359 460.225 412.977C453.721 410.682 447.218 408.005 439.95 404.945C446.453 385.822 452.956 366.699 459.46 347.194C478.587 349.489 497.332 351.783 516.46 354.461Z" fill="#858585"/>
<path d="M467.11 261.524C459.077 282.177 451.426 302.064 443.775 322.717C440.715 321.952 437.654 321.187 434.594 320.422C425.03 317.745 415.466 315.068 405.903 312.008C403.607 311.243 402.077 308.184 400.164 306.271V305.889C398.252 299.005 393.661 292.121 394.809 286.001C395.956 280.264 402.842 275.292 407.05 270.32C412.406 264.201 417.379 258.082 422.735 251.962C423.882 250.433 426.943 249.668 428.473 250.05C441.097 253.492 453.721 257.317 467.11 261.524Z" fill="#858585"/>
<path d="M312.945 271.085C325.186 268.025 337.045 265.73 348.904 272.997C358.085 278.351 368.032 281.793 377.595 286.383C379.891 287.53 382.186 290.207 382.951 292.502C385.629 299.386 389.837 307.036 388.689 313.537C387.542 320.039 379.508 325.011 375.683 331.131C371.857 336.485 368.032 337.25 362.293 334.573C352.73 330.748 342.783 327.688 332.837 324.246C330.924 323.481 328.629 321.951 328.247 320.422C323.273 305.506 318.683 290.207 313.71 275.292C313.71 274.144 313.327 272.614 312.945 271.085Z" fill="#858585"/>
<path d="M482.798 107.393C462.523 98.9786 443.013 90.947 423.121 82.9154C428.859 70.6767 434.597 58.8205 440.335 46.9643C441.1 45.817 442.631 45.0521 444.161 44.2871C447.604 42.7573 451.429 41.9924 454.872 40.4626C469.027 32.4309 482.798 34.7257 496.953 43.1398C492.362 63.7925 487.389 85.2101 482.798 107.393Z" fill="#858585"/>
<path d="M247.53 302.064C265.51 292.885 283.107 283.706 301.47 274.145C303.383 279.882 305.295 285.619 306.825 290.973C309.503 299.387 311.416 308.184 314.859 316.215C317.919 323.482 316.772 328.836 311.416 334.573C303.765 342.987 296.497 351.784 288.846 361.345C274.691 341.075 261.302 321.952 247.53 302.064Z" fill="#858585"/>
<path d="M392.13 -19.5833C404.754 -24.9378 415.848 -30.6746 427.707 -34.4992C432.298 -36.029 438.419 -33.7343 444.157 -33.3518C450.278 -32.9694 452.956 -29.9097 454.103 -23.7904C457.164 -9.63945 461.372 4.12904 464.815 17.8975C465.197 19.4274 465.58 21.3396 465.962 23.6344C457.164 26.6941 448.747 29.7537 440.331 32.8134C439.184 33.1958 436.506 32.4309 435.741 31.666C421.586 14.8379 407.05 -1.99029 392.13 -19.5833Z" fill="#858585"/>
</g>
<defs>
<clipPath id="clip0_2_5321">
<rect width="577" height="602" fill="white"/>
</clipPath>
</defs>
</svg>
